<?xml version="1.0" standalone="no"?>
<svg viewBox="0 0 200 200" xmlns="http://www.w3.org/2000/svg">
  <path fill="#010157" d="M40.4,-60.9C53.2,-54.6,65.1,-44.9,69,-32.6C72.9,-20.3,68.9,-5.5,64.6,7.8C60.4,21.1,56,32.9,48.8,43.8C41.7,54.7,31.8,64.8,19.7,69.3C7.6,73.8,-6.7,72.8,-19.1,67.9C-31.5,63,-41.9,54.2,-49.6,43.8C-57.3,33.5,-62.2,21.6,-63.5,9.4C-64.8,-2.7,-62.5,-15.1,-59.7,-29.7C-56.8,-44.3,-53.4,-61,-43.4,-68.7C-33.3,-76.3,-16.7,-74.8,-1.5,-72.6C13.8,-70.3,27.5,-67.3,40.4,-60.9Z" transform="translate(100 100)" />
</svg>
