<svg width="1223" height="1913" viewBox="0 0 1223 1913" fill="none" xmlns="http://www.w3.org/2000/svg">
<g clip-path="url(#clip0_318_131)">
<rect width="1223" height="1913" fill="#FDF2E9"/>
<path d="M184.709 1902.87C151.499 1900.4 118.805 1912.16 94.7783 1935.22V1935.22C48.4822 1979.65 -28.6718 1952.49 -36.9238 1888.86L-56.0736 1741.18C-63.9233 1680.65 -35.1287 1621.22 17.2443 1589.87L24.3704 1585.6C58.4482 1565.2 101.388 1567 133.649 1590.16L283.67 1697.89C316.691 1721.61 334.626 1761.08 330.767 1801.55V1801.55C324.864 1863.45 270.55 1909.26 208.543 1904.65L184.709 1902.87Z" fill="#66779D" fill-opacity="0.79"/>
<path d="M1058.27 883.548C1071.92 832.584 1129.96 808.166 1175.94 834.043L1274.09 889.281C1332.22 921.997 1313.3 1010.15 1246.87 1016.14V1016.14C1209.4 1019.51 1177.92 1045.7 1167.78 1081.93L1153.91 1131.46C1145.47 1161.61 1111.56 1176.51 1083.65 1162.33L1060.92 1150.78C1021.54 1130.77 987.286 1101.97 960.825 1066.59V1066.59L949.37 1049.51C942.767 1039.66 938.721 1028.32 937.597 1016.52V1016.52C936.415 1004.1 941.807 991.958 951.817 984.507L1028.47 927.457C1043.06 916.594 1053.56 901.123 1058.27 883.548V883.548Z" fill="#798DCA"/>
<path d="M178.977 140.235C195.856 124.449 208.312 104.523 215.109 82.4347L223.373 55.5807C227.056 43.6137 234.778 33.2959 245.221 26.3889V26.3889C303.717 -12.2985 382.086 0.183752 425.669 55.1298L430.501 61.2223C444.507 78.8794 446.895 103.094 436.609 123.147L396.802 200.755C382.153 229.315 375.956 261.462 378.939 293.421L382.347 329.927C385.276 361.311 354.962 385.339 325.076 375.321L285.434 362.033C249.691 350.052 210.483 354.438 178.27 374.02V374.02C148.237 392.276 109.101 382.896 90.6066 353.009L89.3392 350.961C86.1284 345.772 83.6479 340.165 81.9676 334.299L80.2688 328.368C74.8536 309.463 74.559 289.458 79.415 270.401L84.5 250.446L89.9508 236.595C95.5215 222.44 104.248 209.742 115.467 199.468L124.016 191.639L178.977 140.235Z" fill="#010157" fill-opacity="0.68"/>
<path d="M730.863 398.732C751.001 400.231 771.215 397.1 789.955 389.579V389.579C847.901 366.323 911 408.99 911 471.429V565.738C911 598.181 900.617 629.772 881.371 655.89L876.217 662.883C841.452 710.06 775.213 720.51 727.612 686.328L610.33 602.107C577.309 578.394 559.374 538.921 563.233 498.451V498.451C569.136 436.553 623.45 390.738 685.457 395.353L730.863 398.732Z" fill="#BCAFA4" fill-opacity="0.54"/>
<path d="M223.091 792.54C234.361 761.575 268.6 745.609 299.565 756.88L319.959 764.303C362.837 779.909 395.002 816.017 405.568 860.406V860.406C416.273 905.379 409.359 952.743 386.246 992.779L349.254 1056.86C343.594 1066.66 336.845 1075.8 329.137 1084.09L323.724 1089.91C302.057 1113.21 274.989 1130.83 244.906 1141.2L240.373 1142.76C206.139 1154.56 168.398 1150.17 137.784 1130.83V1130.83C117.739 1118.17 101.922 1099.82 92.3527 1078.13L81.2207 1052.89C79.9122 1049.93 78.929 1046.83 78.2881 1043.65L72.0534 1012.73C65.2574 979.035 74.085 944.07 96.0633 917.635V917.635C103.335 908.888 111.88 901.283 121.41 895.074L159.057 870.548V870.548C186.607 857.579 207.912 834.243 218.327 805.629L223.091 792.54Z" fill="#080165" fill-opacity="0.82"/>
<path d="M568.496 1482.38C562.037 1429.64 597.758 1380.98 650.016 1371.34L690.968 1363.79C840.996 1336.12 976.547 1458.04 964.858 1610.16V1610.16C957.702 1703.28 862.801 1763.19 775.651 1729.58L701.284 1700.91C632.788 1674.5 584.426 1612.48 575.504 1539.61L568.496 1482.38Z" fill="#B0C6F1"/>
</g>
<defs>
<clipPath id="clip0_318_131">
<rect width="1223" height="1913" fill="white"/>
</clipPath>
</defs>
</svg>
